<?xml version="1.0" encoding="UTF-8"?> <svg xmlns="http://www.w3.org/2000/svg" id="Vrstva_1" data-name="Vrstva 1" viewBox="0 0 380.52 69.99"><title>timepress_logo</title><path d="M48.84,19.12H36.53V59.95H24.72V19.12H11.83V10H50Z"></path><path d="M66.55,59.95H54.74V10H66.55v49.9Z"></path><path d="M125.38,59.95H113.79l-0.86-19.51a193.82,193.82,0,0,1-.14-20.38l-7.7,34.64H93.91L85.7,20.05a178.48,178.48,0,0,1,.22,20.52L85.06,59.95H73.54L77.28,10H92.18l7.49,33.84,7-33.84h15Z"></path><path d="M161.81,18.47H144.24v12h15.34V38.7H144.24V51.45H163v8.5h-30.6V10H163Z"></path><path d="M207.24,26.32c0,11.59-8.21,17-19.73,17h-5.4V59.95H170.3V10h16.13C199.32,10,207.24,15.37,207.24,26.32Zm-12.17,0c0-5.33-3-7.85-8.78-7.85h-4.18V34.82h4.39C191.83,34.82,195.07,32.58,195.07,26.32Z"></path><path d="M229.92,40.86h-4.61V59.95H213.5V10h16.34c13.54,0,20.52,4.82,20.52,15.19,0,6.55-3.1,10.51-9.58,13.47l12.67,21.24H240.14Zm-4.61-8.14h5c5.18,0,7.92-2.23,7.92-7.49,0-4.82-2.81-6.91-8.64-6.91h-4.25v14.4Z"></path><path d="M287.3,18.47H269.73v12h15.34V38.7H269.73V51.45h18.79v8.5h-30.6V10h30.6Z"></path><path d="M328.41,15.23l-5.47,6.41A16.69,16.69,0,0,0,312,17.46c-4.1,0-6.7,1.73-6.7,4.9s1.87,4.46,9.65,6.91c9.43,3,14.83,6.91,14.83,16.13S322.44,61.17,310,61.17C301.34,61.17,295.15,58,291,54l6-6.55a18.78,18.78,0,0,0,12.6,4.9c4.9,0,7.92-2.3,7.92-6.12s-1.87-5.33-9.14-7.56c-11.16-3.46-15.27-8.06-15.27-15.48,0-8.78,7.63-14.4,18-14.4C318.77,8.82,324,11.05,328.41,15.23Z"></path><path d="M368.81,15.23l-5.47,6.41a16.69,16.69,0,0,0-10.95-4.18c-4.1,0-6.7,1.73-6.7,4.9s1.87,4.46,9.65,6.91c9.43,3,14.83,6.91,14.83,16.13s-7.34,15.77-19.8,15.77c-8.64,0-14.83-3.17-18.94-7.13l6-6.55a18.78,18.78,0,0,0,12.6,4.9c4.9,0,7.92-2.3,7.92-6.12s-1.87-5.33-9.14-7.56c-11.16-3.46-15.27-8.06-15.27-15.48,0-8.78,7.63-14.4,18-14.4C359.16,8.82,364.41,11.05,368.81,15.23Z"></path></svg> 